<?xml version="1.0" encoding="UTF-8"?>
<!DOCTYPE svg PUBLIC "-//W3C//DTD SVG 1.1//EN" "http://www.w3.org/Graphics/SVG/1.1/DTD/svg11.dtd">
<!-- Creator: CorelDRAW 2018 (64 Bit Versão de avaliação) -->
<svg xmlns="http://www.w3.org/2000/svg" xml:space="preserve" width="210mm" height="297mm" version="1.1" style="shape-rendering:geometricPrecision; text-rendering:geometricPrecision; image-rendering:optimizeQuality; fill-rule:evenodd; clip-rule:evenodd"
viewBox="0 0 21000 29700"
 xmlns:xlink="http://www.w3.org/1999/xlink">
 <defs>
  <style type="text/css">
   <![CDATA[
    .str0 {stroke:#4DB38E;stroke-width:20;stroke-miterlimit:22.9256}
    .fil4 {fill:none}
    .fil0 {fill:#4DB38E}
    .fil3 {fill:#D18C8C}
    .fil2 {fill:#FEFEFE}
    .fil1 {fill:white}
   ]]>
  </style>
   <clipPath id="id0">
    <path d="M4377.77 9563.36c-306.25,-4.19 -557.89,234.99 -562.05,534.22 -4.16,299.23 240.72,545.2 546.97,549.39 306.25,4.19 557.89,-234.99 562.05,-534.22 4.17,-299.23 -240.72,-545.2 -546.97,-549.39z"/>
   </clipPath>
 </defs>
 <g id="Camada_x0020_1">
  <metadata id="CorelCorpID_0Corel-Layer"/>
  <path class="fil0" d="M4377.77 9563.36c-306.25,-4.19 -557.89,234.99 -562.05,534.22 -4.16,299.23 240.72,545.2 546.97,549.39 306.25,4.19 557.89,-234.99 562.05,-534.22 4.17,-299.23 -240.72,-545.2 -546.97,-549.39z"/>
  <g style="clip-path:url(#id0)">
   <g id="_3038746977328">
    <g>
     <path id="1" class="fil0" d="M4738.96 9987.32c1.03,1.38 0.19,-0.6 0.77,1.86 1.45,6.2 3.04,45.27 3.46,52.17 3.24,10.11 -0.25,130.64 -0.86,149.74 -0.7,21.93 -3.17,49.52 -6.64,70.07 -13.15,77.8 -54.59,99.85 -129.29,99.83l-460.76 0c-85.5,0 -118.12,-25.44 -133.23,-96.03 -9.85,-46.05 -10.7,-181.65 -8.52,-221.36 2.57,-46.8 3.62,-93.86 20.37,-133.25 8.55,-20.11 19.08,-30.61 35.38,-41.12 32.16,-20.75 93.61,-16.6 133.35,-19.7 24.74,-1.94 50.33,-0.2 75.11,-2.12 26.51,-2.05 120.77,-1.44 151.63,-1.02 24.75,0.34 49.99,1.23 74.67,1.33 11.7,0.04 25.74,-0.07 37.37,0.7 36,2.36 71.23,2.22 109.8,6.19 22.87,2.36 40.62,8.94 55.29,21.08 22.93,18.99 32.88,44.14 38.69,76.09 1.39,7.67 4.57,28.27 3.41,35.54zm-873.79 -338.06l0 911.51c0,24.69 25.54,48.34 48.29,50.06 10.03,0.75 23.29,0.02 33.67,0.02l862.34 0c5.41,0 11.06,0.17 16.43,0.04 11.52,-0.26 25.77,-8.07 33.89,-16.19 16.59,-16.6 16.15,-30.34 16.15,-49.41l0 -862.34c0,-24.86 3.13,-38.3 -8.56,-57.92 -6.5,-10.91 -24.38,-24.94 -41.52,-24.94l-911.51 0c-6,0 -5.77,0.49 -10.03,1.8 -4.4,1.36 -5.54,1.57 -9.16,3.6 -13.58,7.6 -23.48,17.84 -27.97,33.03 -1.41,4.78 -2.02,4.49 -2.02,10.74z"/>
     <path class="fil1" d="M4743.19 10041.35c-2.87,-2.27 -2.01,-4.74 -2.02,-9.63 -115.95,0 -231.9,0 -347.85,0 -8.31,0 -20.51,-1.66 -21.51,2.18 1.56,1.83 53.16,28.13 61.44,32.54l61.79 32.65c-2.31,2.73 -86.73,45.82 -98.21,51.77l-74.4 38.52c-5.85,2.96 -19.16,10.86 -24.44,12.25l-0.52 -205.06c2.57,-3.47 -1.44,-0.65 2.94,-0.84l437.97 0.46 0.58 -8.87c1.16,-7.27 -2.02,-27.87 -3.41,-35.54 -5.81,-31.95 -15.76,-57.1 -38.69,-76.09 -14.67,-12.14 -32.42,-18.72 -55.29,-21.08 -38.57,-3.97 -73.8,-3.83 -109.8,-6.19 -11.63,-0.77 -25.67,-0.66 -37.37,-0.7 -24.68,-0.1 -49.92,-0.99 -74.67,-1.33 -30.86,-0.42 -125.12,-1.03 -151.63,1.02 -24.78,1.92 -50.37,0.18 -75.11,2.12 -39.74,3.1 -101.19,-1.05 -133.35,19.7 -16.3,10.51 -26.83,21.01 -35.38,41.12 -16.75,39.39 -17.8,86.45 -20.37,133.25 -2.18,39.71 -1.33,175.31 8.52,221.36 15.11,70.59 47.73,96.03 133.23,96.03l460.76 0c74.7,0.02 116.14,-22.03 129.29,-99.83 3.47,-20.55 5.94,-48.14 6.64,-70.07 0.61,-19.1 4.1,-139.63 0.86,-149.74z"/>
     <path class="fil0" d="M4371.81 10033.9l-37.45 -18.8c-5.79,-3.22 -33.04,-17.95 -36.89,-18.53l0.52 205.06c5.28,-1.39 18.59,-9.29 24.44,-12.25l74.4 -38.52c11.48,-5.95 95.9,-49.04 98.21,-51.77l-61.79 -32.65c-8.28,-4.41 -59.88,-30.71 -61.44,-32.54z"/>
     <path class="fil2" d="M4297.47 9996.57c3.85,0.58 31.1,15.31 36.89,18.53l37.45 18.8c1,-3.84 13.2,-2.18 21.51,-2.18 115.95,0 231.9,0 347.85,0 0.01,4.89 -0.85,7.36 2.02,9.63 -0.42,-6.9 -2.01,-45.97 -3.46,-52.17 -0.58,-2.46 0.26,-0.48 -0.77,-1.86l-0.58 8.87 -437.97 -0.46c-4.38,0.19 -0.37,-2.63 -2.94,0.84z"/>
     <path class="fil3" d="M4825.86 9600.09l-908.8 -0.93c-3.32,0.42 1.2,-0.44 -1.5,0.32l-1.21 0.61 911.51 0z"/>
     <path class="fil3" d="M3865.17 10560.77l0 -911.51 -0.91 897.85c0,6.34 -0.53,9.88 0.59,13.07 0.05,0.15 0.2,0.4 0.32,0.59z"/>
    </g>
   </g>
  </g>
  <path class="fil4 str0" d="M4377.77 9563.36c-306.25,-4.19 -557.89,234.99 -562.05,534.22 -4.16,299.23 240.72,545.2 546.97,549.39 306.25,4.19 557.89,-234.99 562.05,-534.22 4.17,-299.23 -240.72,-545.2 -546.97,-549.39z"/>
  <path class="fil1" d="M6937.81 6189.11c-18.59,4.31 -66.76,-4.99 -67.86,5.62l-1.81 113.56c38.35,10.4 69.99,-17.2 71.33,21.94 1.86,54.05 -5.85,316.56 2.09,324.71 12.33,5.96 54.39,2.31 70.92,2.31 97.36,-0.01 73.33,30.81 73.33,-170.66 0,-57.45 -1.2,-117.29 0.96,-174.48 75.59,-6.76 93.5,19.1 97.19,-28.44 1.71,-21.92 9.47,-79.36 6.63,-93.03 -27.3,-5.97 -84.18,6.79 -103.63,-4.41 -9.19,-15.68 -3.06,-80.27 8.65,-91.73 23.1,-22.64 66.95,-3.74 97.48,-13.48l0.72 -113.28c-18.02,-7.13 -96.18,-2.85 -119.67,-1.98 -69.18,2.56 -119.24,38.72 -131.7,108.63 -6.07,34.03 2.08,87.25 -4.63,114.72z"/>
 </g>
</svg>
