<?xml version="1.0" encoding="UTF-8"?>
<!DOCTYPE svg PUBLIC "-//W3C//DTD SVG 1.1//EN" "http://www.w3.org/Graphics/SVG/1.1/DTD/svg11.dtd">
<!-- Creator: CorelDRAW 2018 (64 Bit Versão de avaliação) -->
<svg xmlns="http://www.w3.org/2000/svg" xml:space="preserve" width="210mm" height="297mm" version="1.1" style="shape-rendering:geometricPrecision; text-rendering:geometricPrecision; image-rendering:optimizeQuality; fill-rule:evenodd; clip-rule:evenodd"
viewBox="0 0 21000 29700"
 xmlns:xlink="http://www.w3.org/1999/xlink">
 <defs>
  <style type="text/css">
   <![CDATA[
    .str0 {stroke:#4DB38E;stroke-width:20;stroke-miterlimit:22.9256}
    .fil3 {fill:none}
    .fil1 {fill:#FEFEFE}
    .fil0 {fill:#4DB38E}
    .fil2 {fill:#797979}
   ]]>
  </style>
   <clipPath id="id0">
    <path d="M7368.35 7491.13c-306.25,-4.19 -557.89,234.99 -562.05,534.22 -4.16,299.23 240.72,545.2 546.97,549.39 306.25,4.19 557.89,-234.99 562.05,-534.22 4.17,-299.23 -240.72,-545.2 -546.97,-549.39z"/>
   </clipPath>
 </defs>
 <g id="Camada_x0020_1">
  <metadata id="CorelCorpID_0Corel-Layer"/>
  <path class="fil0" d="M7368.35 7491.13c-306.25,-4.19 -557.89,234.99 -562.05,534.22 -4.16,299.23 240.72,545.2 546.97,549.39 306.25,4.19 557.89,-234.99 562.05,-534.22 4.17,-299.23 -240.72,-545.2 -546.97,-549.39z"/>
  <g style="clip-path:url(#id0)">
   <g id="_3038850393344">
    <path id="1" class="fil1" d="M7048.48 8088.8l-0.15 -134.09c0,-90.8 0.19,-160.06 57.37,-202.4 52.89,-39.17 153.56,-31.89 228.76,-31.9 52.66,0 173.22,-2.43 217.85,5.71 34.8,6.34 64.05,21.85 80.27,40.37 48.63,55.51 40.43,155.34 40.78,240.98l-0.01 103.31c0,90.32 -0.36,161.21 -57.5,202.27 -55.63,39.98 -150.35,32.12 -226.44,32.12l-105.51 0c-74.32,0.01 -158.43,-0.96 -196.85,-48.48 -42.73,-52.84 -38.57,-127.71 -38.57,-207.89zm496.84 321.32c6.57,-4.21 14.49,-3.86 23.37,-4.51 58.28,-7.12 105.74,-45.91 129.54,-78.34 33.34,-45.43 40.76,-99.98 43.16,-168.13 2.49,-70.54 7.02,-286.73 -12.87,-356.94 -2.82,-9.98 -12.83,-31.46 -13.07,-38.33 -6.2,-5.76 -8.57,-13.3 -15.61,-22.88 -13.26,-18.1 -33.86,-38.95 -53.58,-51.89 -13.53,-8.88 -32.01,-17.33 -49.68,-22.88l-43.63 -9.67c-6.87,-0.94 -9.25,-0.61 -14.48,-3.48l-232.59 -1.54c-72.94,-0.03 -150.22,-1.76 -210.5,26.74 -136.03,64.31 -115.97,226.17 -116.01,357.78 -0.03,139.85 -17.08,287.3 120.26,353.5 86.9,41.9 334.09,20.89 445.69,20.57z"/>
    <path class="fil1" d="M7339.05 7907.82c68.41,-13.32 136.08,35.33 147.08,104.27 11.97,75.08 -41.28,134.58 -102.54,145.64 -76.25,13.77 -137.66,-40.68 -148.03,-104.05 -11.16,-68.23 32.37,-132 103.49,-145.86zm-12.37 -67.57c-95.9,17.1 -178.98,107.91 -158.89,226.11 16.18,95.24 109.97,180.98 228.81,159 94.95,-17.57 177.03,-108.36 157.3,-226.21 -16.17,-96.54 -110.16,-179.77 -227.22,-158.9z"/>
    <path class="fil1" d="M7555.22 7783.94c-59.43,12.32 -42.42,102.18 18.69,89.51 58.01,-12.02 39.67,-101.61 -18.69,-89.51z"/>
    <path class="fil2" d="M7545.32 8410.12c4.33,-0.29 8.2,-0.64 12.59,-1.28 2.64,-0.38 1.74,0.05 5.32,-0.89 4.8,-1.26 4.31,-1.75 5.46,-2.34 -8.88,0.65 -16.8,0.3 -23.37,4.51z"/>
   </g>
  </g>
  <path class="fil3 str0" d="M7368.35 7491.13c-306.25,-4.19 -557.89,234.99 -562.05,534.22 -4.16,299.23 240.72,545.2 546.97,549.39 306.25,4.19 557.89,-234.99 562.05,-534.22 4.17,-299.23 -240.72,-545.2 -546.97,-549.39z"/>
 </g>
</svg>
