<?xml version="1.0" encoding="UTF-8"?>
<!DOCTYPE svg PUBLIC "-//W3C//DTD SVG 1.1//EN" "http://www.w3.org/Graphics/SVG/1.1/DTD/svg11.dtd">
<!-- Creator: CorelDRAW 2018 (64 Bit Versão de avaliação) -->
<svg xmlns="http://www.w3.org/2000/svg" xml:space="preserve" width="210mm" height="297mm" version="1.1" style="shape-rendering:geometricPrecision; text-rendering:geometricPrecision; image-rendering:optimizeQuality; fill-rule:evenodd; clip-rule:evenodd"
viewBox="0 0 21000 29700"
 xmlns:xlink="http://www.w3.org/1999/xlink">
 <defs>
  <style type="text/css">
   <![CDATA[
    .str0 {stroke:#4DB38E;stroke-width:20;stroke-miterlimit:22.9256}
    .fil0 {fill:#4DB38E}
    .fil1 {fill:white}
   ]]>
  </style>
 </defs>
 <g id="Camada_x0020_1">
  <metadata id="CorelCorpID_0Corel-Layer"/>
  <g id="_3039004808352">
   <ellipse class="fil0 str0" transform="matrix(1.1096 0.01518 -0.0153106 1.10014 7030.98 6311.31)" rx="499.74" ry="492.49"/>
   <path class="fil1" d="M6937.81 6189.11c-18.59,4.31 -66.76,-4.99 -67.86,5.62l-1.81 113.56c38.35,10.4 69.99,-17.2 71.33,21.94 1.86,54.05 -5.85,316.56 2.09,324.71 12.33,5.96 54.39,2.31 70.92,2.31 97.36,-0.01 73.33,30.81 73.33,-170.66 0,-57.45 -1.2,-117.29 0.96,-174.48 75.59,-6.76 93.5,19.1 97.19,-28.44 1.71,-21.92 9.47,-79.36 6.63,-93.03 -27.3,-5.97 -84.18,6.79 -103.63,-4.41 -9.19,-15.68 -3.06,-80.27 8.65,-91.73 23.1,-22.64 66.95,-3.74 97.48,-13.48l0.72 -113.28c-18.02,-7.13 -96.18,-2.85 -119.67,-1.98 -69.18,2.56 -119.24,38.72 -131.7,108.63 -6.07,34.03 2.08,87.25 -4.63,114.72z"/>
  </g>
 </g>
</svg>
