<?xml version="1.0" encoding="UTF-8"?>
<!DOCTYPE svg PUBLIC "-//W3C//DTD SVG 1.1//EN" "http://www.w3.org/Graphics/SVG/1.1/DTD/svg11.dtd">
<!-- Creator: CorelDRAW 2018 (64 Bit Versão de avaliação) -->
<svg xmlns="http://www.w3.org/2000/svg" xml:space="preserve" width="210mm" height="297mm" version="1.1" style="shape-rendering:geometricPrecision; text-rendering:geometricPrecision; image-rendering:optimizeQuality; fill-rule:evenodd; clip-rule:evenodd"
viewBox="0 0 21000 29700"
 xmlns:xlink="http://www.w3.org/1999/xlink">
 <defs>
  <style type="text/css">
   <![CDATA[
    .fil0 {fill:#FEFEFE}
   ]]>
  </style>
 </defs>
 <g id="Camada_x0020_1">
  <metadata id="CorelCorpID_0Corel-Layer"/>
  <g id="_2091640810768">
   <path class="fil0" d="M15097.44 10171.91l243.47 -0.51 9.7 92.1 -261.91 0.42 8.74 -92.01zm469.26 -66.74l54.05 0.3 6.4 25.25 -55.78 0.26 -4.67 -25.81zm-563.31 0.18l432.2 -0.15 1.82 25.47 -435.41 0.47 1.39 -25.79zm-187.11 0.02l55.6 -0.21 -3.75 25.35 -55.53 0.65 3.68 -25.79zm125.47 25.83l-13.75 0 -19.68 -0.16 1.58 -24.06 56.16 -1.95c-2.34,28.43 0.88,26.17 -24.31,26.17zm530.78 -25.55l55.63 -0.17 3.76 25.5 -55.58 -0.21 -3.81 -25.12zm188.5 -0.28l55.61 0.04 5.15 25.56 -56.78 -0.14 -3.98 -25.46zm-887.11 25.05l-56.14 0.75 4.61 -25.44 55.56 -0.56 -4.03 25.25zm782.95 -91.18l143.19 0.29 4.65 25.4 -144.24 -0.73 -3.6 -24.96zm-91.31 0.01l53.26 0.16 2.1 25.67 -52.59 -1.16 -2.77 -24.67zm-90.92 0.21l53.67 0.74 0.57 24.94 -52.73 -1.52 -1.51 -24.16zm-91.23 -0.15l52.71 0.24 2.12 24.72 -52.99 0.77 -1.84 -25.73zm-90.78 0.1l53.86 0.85 -0.56 24.68 -53.18 -0.45 -0.12 -25.08zm-89.72 0.12l52.9 -0.32 -2.08 25.84 -52.94 -0.68 2.12 -24.84zm-182.71 -0.25l53.59 0.01 -3.33 25.37 -52.93 0.07 2.67 -25.45zm-181.29 0.04l143.87 -0.04 -4.3 25.59 -144.58 -0.64 5.01 -24.91zm270.16 24.47c0.39,-11.63 0.14,-14.81 4.69,-24.6l50.82 1.25c-0.98,14.37 11.54,34.31 -55.51,23.35zm449.28 -90.58l49.89 0.06 2.71 25.9 -50.22 -1 -2.38 -24.96zm-176.08 0.31l50.44 -0.19 0.45 25.91 -50.48 -1.34 -0.41 -24.38zm-87.79 -0.32l50.53 -0.09 -0.67 25.97 -50.35 0.03 0.49 -25.91zm-87.96 -0.01l50.5 1.06 -0.87 24.48 -50.9 0.3 1.27 -25.84zm-87.84 0.47l50.33 -0.07 -1.81 25.26 -50.7 -0.15 2.18 -25.04zm-87.69 -0.44l50.15 0.02 -2.9 25.56 -50.61 0 3.36 -25.58zm470.3 -0.34l19.25 1.91 2.01 24.31 -24.72 0.21 -25.98 -2.56 -1.52 -23.48 27.51 -0.08 3.45 -0.31zm282.23 0.18l4.83 26.01 -49.35 -0.78 -4.66 -24.95 49.18 -0.28zm-927.96 0.09l49.56 0.16 -5.17 25.33 -22.81 0.41 -6.86 0.12 -20.29 -0.8 5.57 -25.22zm844.21 26l-49.98 -0.75 -3.63 -25.09 49.85 0.92 3.76 24.92zm-756.48 -25.76l49.85 0.7 -4.32 24.79 -50.29 -0.16 4.76 -25.33zm215.35 203.8l-7.6 86.19c-23.69,1.08 -393.32,3.12 -407.4,-0.59 -21.87,-5.78 -16.66,-27.8 -11.16,-49.05 3.41,-13.17 9.55,-44.81 14.67,-55.06l40.32 -170.24c-11.77,15.89 0.91,-4.59 -10.63,8.74l-7.41 12.96c-0.34,0.46 -1.06,1.34 -1.42,1.73l-11.46 6.17c-3.67,46.18 23.38,3.09 7.42,33.31 -12.15,-11.67 5.78,-9.43 -18.91,-28.33 -0.8,-0.61 -1.52,-1.79 -2.81,-1.3 -7.05,13.45 -27.21,107.19 -32.96,129.91 -16.2,64.02 -19.7,75.55 -20.11,147.79 -0.57,101.32 56.72,84.03 157.11,84.51 32.36,0.15 54.54,5.81 45.98,-34.58 -75.19,-29.47 -171.43,35.72 -165.02,-48.53 43.2,8.92 968.56,3.32 1110.09,3.31 20.61,0 57.46,6.08 71.75,-5.94 -15.31,-3.2 -4.04,-1.16 -13.45,-17.31 -14.15,4.81 -9.53,5.51 -19.42,11.07 4.23,-24.88 -2.85,1.57 12.56,-18.51l-404.64 0c21.56,-9.67 336.52,-1.8 390.99,-3.21 11.56,-0.3 16.66,-1.3 23.92,-7.14l-404.64 0.85c-9.89,-5.42 -5.01,8.4 -7.55,-16.38l-6.54 -70.37c8.87,-8.83 -3.17,-0.88 7.87,-4.69 4.21,-1.44 4.96,-1.26 9.44,-1.59l267.7 0.42c121.07,0.1 108.12,15.36 63.45,-169.96 -17.17,-71.21 -8.05,-68.46 -80.6,-68.45l-716.72 0c-225.52,0 -198.94,-17.84 -221.16,68.48 -48.54,188.64 -54.8,169.91 66.84,169.94l267.58 -0.2c16.31,2.35 5.76,-2.07 13.92,6.05z"/>
   <path class="fil0" d="M14642.25 10021.72c1.29,-0.49 2.01,0.69 2.81,1.3 24.69,18.9 6.76,16.66 18.91,28.33 15.96,-30.22 -11.09,12.87 -7.42,-33.31l11.46 -6.17c0.36,-0.39 1.08,-1.27 1.42,-1.73l7.41 -12.96c11.54,-13.33 -1.14,7.15 10.63,-8.74 11.19,-25.77 8.69,-76.02 35.13,-81.03l339.17 -0.6c64.13,0 423.35,9.22 449.61,-6.57 11.43,-44.05 -26.82,-33.51 -62.1,-33.49l-665.29 0.1c-19.91,0.14 -34.08,2.68 -44.47,-9.55 -39.29,-8.12 -26.58,-118.17 -26.58,-165.01l0 -392.38c0,-30.6 -6.92,-175.89 9.41,-185.1 19.08,-34.52 52.99,-25.42 95.94,-25.42l833.33 -0.02c95.02,-0.36 74.5,49.79 74.5,173.53l0.02 510.83c0.06,42.41 0.71,79.53 -34.97,90.48 -29.71,9.11 -84.86,-2.54 -115.81,3.85 -23.63,17.95 -11.35,38.56 17.69,38.95 27.29,0.36 55.2,-0.16 82.57,-0.23 63.45,-0.14 52.48,-11.21 77.16,90.5 11.2,46.15 22.81,91.28 34.17,137.55 5.79,23.56 10.82,43.83 16.82,67.1 7.61,29.5 16.86,44.08 -4.72,61.16 -7.26,5.84 -12.36,6.84 -23.92,7.14 -54.47,1.41 -369.43,-6.46 -390.99,3.21l404.64 0c-15.41,20.08 -8.33,-6.37 -12.56,18.51 9.89,-5.56 5.27,-6.26 19.42,-11.07 9.41,16.15 -1.86,14.11 13.45,17.31 24.6,57.4 -45.47,45.56 -78.61,45.56 -278.7,0 -566.11,2.68 -843.64,-0.03 -27.67,-0.27 -42.8,-4.56 -42.12,29.66 23.37,16.4 33.44,10.55 66.16,10.56 136.07,0.03 872.96,5.15 898.26,-3.07 48.65,-15.8 41.6,-74.81 40.71,-133.46 -0.69,-44.99 -31.59,-108.33 -29.29,-143.65l-32.95 -121.57c-15.73,-63.2 -10.77,-73.01 -43.15,-108.52 16.93,-37.54 19.04,-32.47 18.85,-85.11 -0.31,-89.73 2.99,-635.26 -1.51,-663.53 -6.11,-38.46 -26.31,-48.66 -40.21,-64.4 -56.01,-18.68 -157.02,-11.43 -220.87,-11.43l-689.29 0c-52.89,0 -134.29,-6.15 -135.74,98.84 -2.78,199.87 0.2,419 0.02,621.99 -0.05,63.66 -2.02,55.61 18.76,103.64 -19.2,27.72 -15.52,-1.05 -32.41,64.97 -6.56,25.64 -14.6,55.49 -19.81,83.08z"/>
   <path class="fil0" d="M14970.52 9692.94c23.61,-4.72 480.61,-4.03 498.06,0.47l-0.64 38.97 -497.36 -1.05 -0.06 -38.39zm694.14 -468.5l0.34 507.44 -158.52 0.33c-6.27,-102.36 16.45,-81.12 -238.95,-81.12 -61.49,0 -269.92,-3.11 -313.78,1.53 -0.36,0.34 -7.68,6.36 -9.97,8.62 -5.35,5.3 -4.21,6.34 -8.23,8.86l-2.82 60.86 -158.06 0.55 -11.26 -22.35c-8.89,8.84 -4.02,3.14 -7.76,16.32 -1.5,5.29 -0.2,4.89 -2.57,12.36l-1.89 4.83c-0.3,0.61 -0.81,1.56 -1.17,2.1 -0.54,0.82 -2.24,2.91 -2.92,3.56 -5.33,5.08 2.36,0.95 -9.21,5.22 5.42,16.85 8.77,18.61 28.75,19.05l898.88 0c43.69,0.18 37.01,-15.24 36.88,-58.09 -0.12,-40.6 5.17,-495.75 -3.62,-511.23 -6.66,25.68 -2.57,481.9 -2.57,549.24 -13.61,-10.78 -10.18,-1.27 -30.87,2.68l15.55 -21.02c9.36,14.16 -5.54,7.1 11.85,11.61 -12.4,-16.5 -10.72,-11.07 -7.81,-31.18 2.05,-14.18 2.69,-17.73 2.6,-33.42 -0.76,-130.69 3.88,-311.21 0.04,-433.05 -0.69,-22.12 -2.91,-17.06 -5.1,-17.39 -16.51,0.86 1.52,-11.71 -3.53,2.36l1.99 44.59c-0.33,121.29 -4.03,342.49 1.54,442.18 -2.74,-3.08 -7.6,2.1 -7.44,-23.86l0.26 -414.61c0.06,-28.56 4.86,-48.87 -10.63,-56.97z"/>
   <path class="fil0" d="M15664.66 9224.44c15.49,8.1 10.69,28.41 10.63,56.97l-0.26 414.61c-0.16,25.96 4.7,20.78 7.44,23.86 -5.57,-99.69 -1.87,-320.89 -1.54,-442.18l-1.99 -44.59c5.05,-14.07 -12.98,-1.5 3.53,-2.36 2.19,0.33 4.41,-4.73 5.1,17.39 3.84,121.84 -0.8,302.36 -0.04,433.05 0.09,15.69 -0.55,19.24 -2.6,33.42 -2.91,20.11 -4.59,14.68 7.81,31.18 -17.39,-4.51 -2.49,2.55 -11.85,-11.61l-15.55 21.02c20.69,-3.95 17.26,-13.46 30.87,-2.68 0,-67.34 -4.09,-523.56 2.57,-549.24l-1.22 -11.76c-32.82,-11.96 -449.19,-5.55 -519.19,-5.55l-390.96 -0.01c-21.94,-0.11 -43.74,-4.82 -49.48,15.91 -5.32,19.16 -1.79,53.11 3.61,66.42 33.42,9.15 31.64,-10.44 32.79,-41.7l890.33 -2.15z"/>
   <path class="fil0" d="M15174.38 9431.6l68.59 17.8c-8.88,33.95 -3.94,33.52 21.28,56.33 -4.99,12.01 -7.29,14.04 -17.3,20.86 -18.02,-9.77 -25.33,-41.12 -53.77,-21.14l-18.8 -73.85zm-23.89 73.17c13.65,19.48 7.55,64.63 39.88,56.06 11.43,-3.04 10.43,-8.74 23.19,-13.73 35.62,52.53 51.29,19.74 83.74,-15.16 26.07,-28.02 -0.53,-45.08 -14.93,-62.17 12.98,-22.9 20.7,-16.09 6.61,-49.71 -33.77,-3.39 -116.15,-42.39 -147.76,-33.94 -27.57,29.04 15.92,81.78 9.27,118.65z"/>
   <path class="fil0" d="M14737.89 9753.55c11.57,-4.27 3.88,-0.14 9.21,-5.22 0.68,-0.65 2.38,-2.74 2.92,-3.56 0.36,-0.54 0.87,-1.49 1.17,-2.1l1.89 -4.83c2.37,-7.47 1.07,-7.07 2.57,-12.36 3.74,-13.18 -1.13,-7.48 7.76,-16.32l11.26 22.35c-4.86,-68.06 -0.61,-244.32 -0.66,-331.65 -0.02,-39.61 11.4,-84.17 -33.02,-71.97 -7.17,22.12 -9.18,401.57 -3.1,425.66z"/>
   <path class="fil0" d="M15077.35 9807.13l1.04 -0.07c-3.9,41.29 20.15,31.99 51.96,31.95l157.76 0c18.59,0 61.43,7.52 70.48,-8.43 19.85,-35 -24.93,-31.95 -46.48,-31.85 -53.44,0.27 -209.43,-7.38 -234.76,8.4z"/>
   <path class="fil0" d="M15204.85 9152.96c12.04,4.62 17.65,4.41 29.52,-0.16l3.18 -26.48 -8.77 -6.16c-24.68,-5.66 -31.63,8.24 -23.93,32.8z"/>
  </g>
 </g>
</svg>
